<?xml version="1.0" standalone="no"?>
<!DOCTYPE svg PUBLIC "-//W3C//DTD SVG 20010904//EN"
 "http://www.w3.org/TR/2001/REC-SVG-20010904/DTD/svg10.dtd">
<svg version="1.0" xmlns="http://www.w3.org/2000/svg"
 width="275.000000pt" height="275.000000pt" viewBox="0 0 275.000000 275.000000"
 preserveAspectRatio="xMidYMid meet">
<metadata>
Created by potrace 1.14, written by Peter Selinger 2001-2017
</metadata>
<g transform="translate(0.000000,275.000000) scale(0.100000,-0.100000)"
fill="#000000" stroke="none">
<path d="M1584 2691 c-22 -10 -50 -30 -62 -45 -22 -29 -45 -116 -36 -140 13
-35 74 -18 74 21 0 28 33 85 56 95 30 14 240 -36 269 -64 16 -15 20 -32 20
-91 0 -71 0 -72 27 -75 32 -4 42 13 53 90 10 66 -20 130 -74 157 -41 21 -229
71 -266 71 -11 0 -38 -9 -61 -19z"/>
<path d="M835 2513 c-94 -7 -95 -10 -69 -164 l17 -97 161 -7 c492 -20 839
-100 1131 -260 84 -46 228 -147 254 -178 7 -9 18 -17 23 -17 6 0 50 25 99 56
l89 57 0 56 0 56 -63 54 c-320 278 -798 429 -1407 444 -96 3 -202 3 -235 0z"/>
<path d="M872 2197 c-12 -14 -38 -407 -28 -433 9 -23 30 -17 227 56 217 81
298 100 430 100 223 0 391 -77 601 -277 42 -40 83 -73 91 -73 25 0 37 25 58
124 24 114 29 103 -86 189 -232 174 -601 284 -1055 316 -189 14 -225 14 -238
-2z"/>
<path d="M1400 1834 c-95 -19 -232 -63 -398 -128 -247 -98 -333 -119 -477
-119 -104 0 -198 19 -288 58 -32 14 -19 -22 33 -87 99 -123 218 -205 360 -250
74 -23 81 -23 390 -18 579 9 757 6 830 -14 112 -31 206 -84 270 -153 56 -59
129 -172 144 -220 4 -13 12 -23 18 -23 14 0 3 158 -18 236 -43 171 -147 283
-339 366 -201 88 -382 96 -748 32 -78 -14 -194 -27 -257 -29 l-115 -5 245 65
c318 84 367 95 475 102 114 7 232 -15 324 -61 94 -48 134 -58 160 -39 32 22
25 48 -26 94 -144 128 -286 188 -453 194 -58 2 -116 1 -130 -1z"/>
<path d="M945 1171 c-56 -26 -92 -62 -120 -123 -56 -121 -9 -264 107 -322 67
-33 119 -33 186 0 176 88 175 351 -1 439 -60 30 -116 32 -172 6z m132 -150
c14 -20 23 -49 23 -71 0 -48 -37 -104 -72 -108 -18 -2 -32 5 -47 24 -28 36
-26 50 9 63 40 13 43 57 5 71 -30 11 -31 17 -8 42 25 28 63 19 90 -21z"/>
<path d="M1575 1161 c-56 -26 -92 -62 -120 -123 -56 -121 -9 -264 107 -322 67
-33 119 -33 186 0 176 88 175 351 -1 439 -60 30 -116 32 -172 6z m132 -150
c14 -20 23 -49 23 -71 0 -48 -37 -104 -72 -108 -18 -2 -32 5 -47 24 -28 36
-26 50 9 63 40 13 43 57 5 71 -30 11 -31 17 -8 42 25 28 63 19 90 -21z"/>
<path d="M654 640 c-61 -24 -80 -101 -44 -174 30 -62 137 -180 221 -243 147
-111 295 -161 504 -169 117 -5 140 -3 226 19 191 50 349 145 457 278 107 131
130 209 75 261 -71 66 -109 53 -252 -91 -99 -100 -128 -123 -201 -159 -190
-95 -379 -95 -570 0 -73 36 -101 58 -196 154 -127 130 -160 149 -220 124z"/>
</g>
</svg>
